#!OML:ASF H:\Dans Jumps\Project 1\Capture day 1\Session 1\subject.ASF
:FULLY-SPECIFIED
:DEGREES
131
root 0.521335 17.5492 -13.8008 5.62011 -1.07477 -1.68894
lowerback -1.26392 -0.318986 0.571704
upperback 3.87797 -0.517021 1.66952
thorax 4.71915 -0.270868 1.37669
lowerneck -16.0348 0.676878 -2.23891
upperneck 26.8846 1.63224 -0.0814679
head 11.3792 0.494728 0.585798
rclavicle -4.02539e-015 -1.51076e-014
rhumerus -18.7321 -10.4794 -84.7665
rradius 23.9756
rwrist 32.5451
rhand -19.3741 -26.2884
rfingers 7.12502
rthumb 6.94408 -56.1545
lclavicle -4.02539e-015 -1.51076e-014
lhumerus -17.5895 -8.14935 91.5498
lradius 19.6105
lwrist 4.22006
lhand -24.8803 -4.26957
lfingers 7.12502
lthumb 1.62714 25.704
rfemur -10.7423 -3.78252 20.0503
rtibia 19.8255
rfoot -14.0202 -1.5541
rtoes 7.59793
lfemur -9.77113 8.51885 -18.4069
ltibia 17.1759
lfoot -11.8649 1.62784
ltoes -8.12749
132
root 0.521291 17.549 -13.8012 5.61986 -1.06796 -1.68934
lowerback -1.26423 -0.32032 0.5722
upperback 3.87966 -0.518867 1.66976
thorax 4.72114 -0.271776 1.37657
lowerneck -16.0328 0.674082 -2.23872
upperneck 26.8754 1.62779 -0.0807644
head 11.3753 0.492961 0.585317
rclavicle -5.1684e-015 -1.09332e-014
rhumerus -18.725 -10.4819 -84.7692
rradius 23.9832
rwrist 32.5399
rhand -19.3771 -26.2923
rfingers 7.12502
rthumb 6.94113 -56.1585
lclavicle -5.1684e-015 -1.09332e-014
lhumerus -17.5869 -8.1582 91.5508
lradius 19.6202
lwrist 4.22525
lhand -24.8855 -4.28961
lfingers 7.12502
lthumb 1.6222 25.684
rfemur -10.7461 -3.78471 20.0513
rtibia 19.8313
rfoot -14.0215 -1.55864
rtoes 7.5823
lfemur -9.77743 8.51853 -18.4065
ltibia 17.183
lfoot -11.8683 1.62283
ltoes -8.14626
133
root 0.521243 17.5488 -13.8016 5.61992 -1.06175 -1.68667
lowerback -1.26667 -0.321542 0.56922
upperback 3.88459 -0.520506 1.66948
thorax 4.72774 -0.272713 1.37787
lowerneck -16.0373 0.672022 -2.23776
upperneck 26.8651 1.62465 -0.0810912
head 11.3723 0.491728 0.584553
rclavicle -3.37934e-015 -1.15295e-014
rhumerus -18.7132 -10.4836 -84.773
rradius 23.9924
rwrist 32.5335
rhand -19.3757 -26.2907
rfingers 7.12502
rthumb 6.94246 -56.1569
lclavicle -3.37934e-015 -1.15295e-014
lhumerus -17.5762 -8.17215 91.5517
lradius 19.6256
lwrist 4.23475
lhand -24.8959 -4.30739
lfingers 7.12502
lthumb 1.6121 25.6663
rfemur -10.7505 -3.78445 20.0489
rtibia 19.8374
rfoot -14.0227 -1.56452
rtoes 7.57602
lfemur -9.78363 8.51526 -18.4093
ltibia 17.1892
lfoot -11.8698 1.61919
ltoes -8.15301
134
root 0.521194 17.5487 -13.8021 5.61944 -1.05711 -1.68312
lowerback -1.26914 -0.321619 0.565888
upperback 3.89127 -0.520608 1.66851
thorax 4.73614 -0.272891 1.37873
lowerneck -16.0435 0.670002 -2.23556
upperneck 26.8525 1.62122 -0.0813734
head 11.3689 0.490523 0.583549
rclavicle 3.47873e-016 -6.95746e-015
rhumerus -18.7013 -10.4801 -84.7776
rradius 24.0045
rwrist 32.5213
rhand -19.369 -26.2885
rfingers 7.12502
rthumb 6.94895 -56.1545
lclavicle 3.47873e-016 -6.95746e-015
lhumerus -17.5607 -8.18746 91.5513
lradius 19.6302
lwrist 4.24106
lhand -24.9081 -4.32324
lfingers 7.12502
lthumb 1.60037 25.6505
rfemur -10.7546 -3.7806 20.0452
rtibia 19.8439
rfoot -14.0235 -1.57241
rtoes 7.58301
lfemur -9.78884 8.51053 -18.413
ltibia 17.1956
lfoot -11.8702 1.61762
ltoes -8.1537
135
root 0.52107 17.5486 -13.8027 5.6182 -1.05475 -1.6807
lowerback -1.26929 -0.321004 0.562427
upperback 3.89799 -0.519772 1.66825
thorax 4.74326 -0.272623 1.38046
lowerneck -16.0492 0.669123 -2.23276
upperneck 26.8396 1.61945 -0.0824223
head 11.3651 0.490035 0.582394
rclavicle -1.78906e-015 1.37161e-014
rhumerus -18.6903 -10.4724 -84.7822
rradius 24.0162
rwrist 32.5064
rhand -19.3643 -26.2825
rfingers 7.12502
rthumb 6.95353 -56.1483
lclavicle -1.78906e-015 1.37161e-014
lhumerus -17.5428 -8.2022 91.5509
lradius 19.6306
lwrist 4.24922
lhand -24.9213 -4.32468
lfingers 7.12502
lthumb 1.58756 25.6492
rfemur -10.7589 -3.77002 20.0432
rtibia 19.8504
rfoot -14.0231 -1.58528
rtoes 7.58521
lfemur -9.79395 8.50489 -18.4152
ltibia 17.2034
lfoot -11.87 1.61974
ltoes -8.15499
136
root 0.520941 17.5485 -13.8034 5.61691 -1.05309 -1.68101
lowerback -1.26694 -0.320929 0.560488
upperback 3.90447 -0.519745 1.66976
thorax 4.74874 -0.272736 1.38314
lowerneck -16.0511 0.668793 -2.23343
upperneck 26.8226 1.61879 -0.0818324
head 11.359 0.489969 0.582539
rclavicle -1.68967e-015 -1.05356e-014
rhumerus -18.6801 -10.4559 -84.7866
rradius 24.0274
rwrist 32.4878
rhand -19.3614 -26.2744
rfingers 7.12502
rthumb 6.95629 -56.1401
lclavicle -1.68967e-015 -1.05356e-014
lhumerus -17.5255 -8.21042 91.5494
lradius 19.6335
lwrist 4.2546
lhand -24.9279 -4.31721
lfingers 7.12502
lthumb 1.58119 25.6567
rfemur -10.7632 -3.75644 20.044
rtibia 19.8572
rfoot -14.0225 -1.5999
rtoes 7.58669
lfemur -9.80018 8.49914 -18.4143
ltibia 17.213
lfoot -11.8705 1.62281
ltoes -8.15401
137
root 0.520805 17.5482 -13.8041 5.61346 -1.05196 -1.68227
lowerback -1.26205 -0.320293 0.559639
upperback 3.91186 -0.518992 1.67149
thorax 4.75369 -0.272454 1.38549
lowerneck -16.0547 0.668962 -2.23204
upperneck 26.807 1.61879 -0.0827913
head 11.3538 0.490187 0.581879
rclavicle -5.66536e-015 1.27222e-014
rhumerus -18.6695 -10.4402 -84.7905
rradius 24.0366
rwrist 32.4685
rhand -19.3606 -26.2645
rfingers 7.12502
rthumb 6.9571 -56.1301
lclavicle -5.66536e-015 1.27222e-014
lhumerus -17.507 -8.2109 91.5462
lradius 19.6341
lwrist 4.25131
lhand -24.9352 -4.32089
lfingers 7.12502
lthumb 1.57414 25.653
rfemur -10.765 -3.744 20.0456
rtibia 19.864
rfoot -14.0218 -1.61301
rtoes 7.58849
lfemur -9.80505 8.49486 -18.4123
ltibia 17.2248
lfoot -11.873 1.62548
ltoes -8.15024
138
root 0.520695 17.548 -13.8049 5.6093 -1.04908 -1.68273
lowerback -1.25585 -0.319896 0.558913
upperback 3.91947 -0.518514 1.67246
thorax 4.75812 -0.272287 1.38696
lowerneck -16.059 0.669064 -2.22907
upperneck 26.7925 1.61832 -0.0839361
head 11.3492 0.490318 0.580828
rclavicle 5.2181e-015 -8.74653e-015
rhumerus -18.6593 -10.4271 -84.7943
rradius 24.0456
rwrist 32.4505
rhand -19.3583 -26.2575
rfingers 7.12502
rthumb 6.95929 -56.1231
lclavicle 5.2181e-015 -8.74653e-015
lhumerus -17.4895 -8.20543 91.541
lradius 19.6365
lwrist 4.24535
lhand -24.9397 -4.32015
lfingers 7.12502
lthumb 1.56984 25.6538
rfemur -10.7663 -3.73622 20.0461
rtibia 19.8711
rfoot -14.0215 -1.6242
rtoes 7.58985
lfemur -9.81007 8.49186 -18.4111
ltibia 17.238
lfoot -11.877 1.62572
ltoes -8.15101
139
root 0.520594 17.5476 -13.8058 5.60438 -1.04393 -1.6831
lowerback -1.24842 -0.319781 0.559208
upperback 3.92767 -0.518419 1.67291
thorax 4.76246 -0.272261 1.38731
lowerneck -16.0646 0.668292 -2.22523
upperneck 26.78 1.61641 -0.0850239
head 11.3456 0.489866 0.579466
rclavicle 6.65929e-015 -1.70955e-014
rhumerus -18.6498 -10.4153 -84.7975
rradius 24.0554
rwrist 32.4341
rhand -19.3579 -26.2472
rfingers 7.12502
rthumb 6.95967 -56.1128
lclavicle 6.65929e-015 -1.70955e-014
lhumerus -17.4707 -8.19106 91.5331
lradius 19.6382
lwrist 4.23208
lhand -24.9362 -4.32103
lfingers 7.12502
lthumb 1.57315 25.6529
rfemur -10.7664 -3.73248 20.0466
rtibia 19.8781
rfoot -14.0225 -1.63325
rtoes 7.59079
lfemur -9.81501 8.48814 -18.4098
ltibia 17.2513
lfoot -11.8824 1.62446
ltoes -8.14969
140
root 0.520489 17.5473 -13.8067 5.60063 -1.03834 -1.68336
lowerback -1.24119 -0.319065 0.56016
upperback 3.93484 -0.517472 1.67202
thorax 4.7658 -0.271755 1.38595
lowerneck -16.0656 0.667374 -2.21835
upperneck 26.7666 1.61306 -0.0854077
head 11.3407 0.489189 0.577602
rclavicle 4.91992e-015 -6.55989e-015
rhumerus -18.6426 -10.4063 -84.8015
rradius 24.0654
rwrist 32.4208
rhand -19.3573 -26.2436
rfingers 7.12502
rthumb 6.96025 -56.1092
lclavicle 4.91992e-015 -6.55989e-015
lhumerus -17.4538 -8.1761 91.5232
lradius 19.6388
lwrist 4.21949
lhand -24.9369 -4.33161
lfingers 7.12502
lthumb 1.57254 25.6423
rfemur -10.7682 -3.7301 20.0471
rtibia 19.8851
rfoot -14.0231 -1.64267
rtoes 7.58265
lfemur -9.82127 8.48407 -18.4088
ltibia 17.2641
lfoot -11.8873 1.6226
ltoes -8.14531
141
root 0.520422 17.547 -13.8076 5.59806 -1.0313 -1.68235
lowerback -1.2361 -0.318405 0.560797
upperback 3.94265 -0.516588 1.67004
thorax 4.77101 -0.271271 1.38362
lowerneck -16.0694 0.666096 -2.2095
upperneck 26.756 1.60867 -0.0854616
head 11.3376 0.488235 0.575411
rclavicle -8.99501e-015 3.97569e-015
rhumerus -18.6342 -10.4014 -84.806
rradius 24.0732
rwrist 32.4118
rhand -19.3596 -26.2399
rfingers 7.12502
rthumb 6.95806 -56.1055
lclavicle -8.99501e-015 3.97569e-015
lhumerus -17.435 -8.16031 91.5116
lradius 19.6369
lwrist 4.20727
lhand -24.9324 -4.33084
lfingers 7.12502
lthumb 1.57685 25.6431
rfemur -10.773 -3.73057 20.0468
rtibia 19.8922
rfoot -14.0219 -1.65395
rtoes 7.54568
lfemur -9.82868 8.47764 -18.4093
ltibia 17.2758
lfoot -11.8919 1.62088
ltoes -8.13854
142
root 0.520367 17.5468 -13.8085 5.5973 -1.02453 -1.68196
lowerback -1.23136 -0.317305 0.562264
upperback 3.94975 -0.515139 1.66805
thorax 4.77566 -0.270472 1.38086
lowerneck -16.0708 0.663845 -2.20462
upperneck 26.7446 1.60259 -0.0808489
head 11.3335 0.486727 0.575344
rclavicle -8.29926e-015 1.98785e-016
rhumerus -18.6256 -10.3974 -84.8104
rradius 24.079
rwrist 32.4038
rhand -19.3603 -26.2383
rfingers 7.12502
rthumb 6.95736 -56.1039
lclavicle -8.29926e-015 1.98785e-016
lhumerus -17.414 -8.14703 91.4999
lradius 19.6308
lwrist 4.19965
lhand -24.9286 -4.32836
lfingers 7.12502
lthumb 1.58051 25.6455
rfemur -10.7799 -3.72875 20.0472
rtibia 19.8999
rfoot -14.0212 -1.66559
rtoes 7.51111
lfemur -9.83722 8.46944 -18.4092
ltibia 17.2863
lfoot -11.8949 1.61935
ltoes -8.11814
143
root 0.52025 17.5467 -13.8094 5.59794 -1.0188 -1.68074
lowerback -1.22681 -0.316458 0.560187
upperback 3.95574 -0.513939 1.66751
thorax 4.77932 -0.26996 1.38156
lowerneck -16.0729 0.66196 -2.20159
upperneck 26.7364 1.59755 -0.0759305
head 11.3308 0.485491 0.575875
rclavicle -2.98177e-016 -8.34896e-015
rhumerus -18.6178 -10.393 -84.8133
rradius 24.0835
rwrist 32.3969
rhand -19.3616 -26.24
rfingers 7.12502
rthumb 6.95611 -56.1057
lclavicle -2.98177e-016 -8.34896e-015
lhumerus -17.3926 -8.13751 91.4906
lradius 19.6197
lwrist 4.2023
lhand -24.9263 -4.30732
lfingers 7.12502
lthumb 1.58275 25.6666
rfemur -10.7893 -3.72325 20.0471
rtibia 19.9088
rfoot -14.0208 -1.67926
rtoes 7.47405
lfemur -9.84654 8.46125 -18.41
ltibia 17.2951
lfoot -11.895 1.6183
ltoes -8.09902
144
root 0.520117 17.5466 -13.8104 5.60083 -1.01514 -1.67951
lowerback -1.22087 -0.315519 0.555972
upperback 3.95959 -0.512552 1.66875
thorax 4.77999 -0.269468 1.38531
lowerneck -16.077 0.660566 -2.20238
upperneck 26.7311 1.59398 -0.0695508
head 11.3296 0.484673 0.577832
rclavicle 7.8023e-015 -4.77083e-015
rhumerus -18.6115 -10.39 -84.8134
rradius 24.0855
rwrist 32.3958
rhand -19.361 -26.2423
rfingers 7.12502
rthumb 6.95668 -56.108
lclavicle 7.8023e-015 -4.77083e-015
lhumerus -17.3721 -8.13181 91.4838
lradius 19.6071
lwrist 4.21128
lhand -24.9305 -4.29293
lfingers 7.12502
lthumb 1.57872 25.681
rfemur -10.8015 -3.71389 20.0469
rtibia 19.9189
rfoot -14.0207 -1.69259
rtoes 7.44684
lfemur -9.85795 8.45318 -18.4113
ltibia 17.303
lfoot -11.8929 1.61969
ltoes -8.08555
